<svg width="72" height="72" viewBox="0 0 72 72" fill="none" xmlns="http://www.w3.org/2000/svg">
<g clip-path="url(#clip0_61_9863)">
<mask id="mask0_61_9863" style="mask-type:alpha" maskUnits="userSpaceOnUse" x="0" y="0" width="72" height="72">
<circle cx="36" cy="36" r="36" fill="white"/>
</mask>
<g mask="url(#mask0_61_9863)">
<rect x="-7.13098" y="-2.15674" width="86.2673" height="76.3134" fill="#DF1463"/>
<g clip-path="url(#clip1_61_9863)">
<path d="M43.6417 68.7702C41.2824 65.4935 39.4365 59.1585 39.2181 55.991L27.9953 51.1577L23.3259 68.7702H43.6417Z" fill="#FFEDEF" stroke="black" stroke-width="0.655348"/>
<mask id="mask1_61_9863" style="mask-type:alpha" maskUnits="userSpaceOnUse" x="23" y="51" width="125" height="118">
<path d="M147.325 168.658C132.925 148.658 121.659 99.9914 120.325 80.6581L51.8253 51.1577L23.3253 168.658H147.325Z" fill="#AC6651"/>
</mask>
<g mask="url(#mask1_61_9863)">
</g>
<mask id="path-5-inside-1_61_9863" fill="white">
<path d="M30.4729 20.3744C37.284 18.7425 44.1276 22.9175 45.802 29.7074H45.8029L45.8127 29.7484C45.8161 29.7624 45.8201 29.7763 45.8234 29.7904C45.8268 29.8042 45.829 29.8185 45.8322 29.8324L48.5051 40.9906C48.5136 41.0248 48.5232 41.0588 48.5315 41.0931C48.5397 41.1277 48.5469 41.163 48.5549 41.1976L48.5861 41.3265H48.5842C50.0733 48.0881 45.8769 54.8237 39.1154 56.4437C32.3537 58.0636 25.5598 53.9608 23.8234 47.2581L23.8195 47.2601L21.0363 35.6419L21.0373 35.641C19.4528 28.8295 23.6616 22.0063 30.4729 20.3744Z"/>
</mask>
<path d="M30.4729 20.3744C37.284 18.7425 44.1276 22.9175 45.802 29.7074H45.8029L45.8127 29.7484C45.8161 29.7624 45.8201 29.7763 45.8234 29.7904C45.8268 29.8042 45.829 29.8185 45.8322 29.8324L48.5051 40.9906C48.5136 41.0248 48.5232 41.0588 48.5315 41.0931C48.5397 41.1277 48.5469 41.163 48.5549 41.1976L48.5861 41.3265H48.5842C50.0733 48.0881 45.8769 54.8237 39.1154 56.4437C32.3537 58.0636 25.5598 53.9608 23.8234 47.2581L23.8195 47.2601L21.0363 35.6419L21.0373 35.641C19.4528 28.8295 23.6616 22.0063 30.4729 20.3744Z" fill="#FFEDEF"/>
<path d="M30.4729 20.3744L30.3202 19.737L30.3202 19.737L30.4729 20.3744ZM45.802 29.7074L45.1657 29.8643L45.2886 30.3627H45.802V29.7074ZM45.8029 29.7074L46.4405 29.5556L46.3206 29.052H45.8029V29.7074ZM45.8127 29.7484L45.1752 29.9002L45.1759 29.9032L45.8127 29.7484ZM45.8234 29.7904L46.4608 29.6377L46.4608 29.6377L45.8234 29.7904ZM45.8322 29.8324L45.1944 29.983L45.1949 29.985L45.8322 29.8324ZM48.5051 40.9906L47.8677 41.1432L47.869 41.1485L48.5051 40.9906ZM48.5315 41.0931L49.1688 40.9404L49.1688 40.9404L48.5315 41.0931ZM48.5549 41.1976L47.9163 41.3451L47.918 41.352L48.5549 41.1976ZM48.5861 41.3265V41.9818H49.4193L49.223 41.1721L48.5861 41.3265ZM48.5842 41.3265V40.6712H47.7688L47.9442 41.4674L48.5842 41.3265ZM39.1154 56.4437L39.2681 57.081H39.2681L39.1154 56.4437ZM23.8234 47.2581L24.4578 47.0938L24.2547 46.3098L23.5304 46.672L23.8234 47.2581ZM23.8195 47.2601L23.1822 47.4128L23.3745 48.2153L24.1126 47.8463L23.8195 47.2601ZM21.0363 35.6419L20.5729 35.1785L20.3136 35.4379L20.399 35.7946L21.0363 35.6419ZM21.0373 35.641L21.5007 36.1044L21.7581 35.847L21.6756 35.4925L21.0373 35.641ZM30.4729 20.3744L30.6256 21.0117C37.0861 19.4638 43.5775 23.4239 45.1657 29.8643L45.802 29.7074L46.4382 29.5505C44.6777 22.4111 37.482 18.0212 30.3202 19.737L30.4729 20.3744ZM45.802 29.7074V30.3627H45.8029V29.7074V29.052H45.802V29.7074ZM45.8029 29.7074L45.1654 29.8592L45.1752 29.9002L45.8127 29.7484L46.4502 29.5966L46.4405 29.5556L45.8029 29.7074ZM45.8127 29.7484L45.1759 29.9032C45.1793 29.9174 45.1829 29.9306 45.1843 29.9361C45.1863 29.9437 45.1864 29.9441 45.1861 29.9431L45.8234 29.7904L46.4608 29.6377C46.4571 29.6226 46.4535 29.609 46.4519 29.6026C46.4496 29.5941 46.4495 29.5934 46.4495 29.5935L45.8127 29.7484ZM45.8234 29.7904L45.1861 29.9431C45.1849 29.9378 45.1841 29.9342 45.184 29.9334C45.1839 29.9329 45.1839 29.9331 45.1847 29.937C45.1852 29.9397 45.1865 29.9464 45.1879 29.9535C45.1895 29.9609 45.1916 29.9712 45.1944 29.983L45.8322 29.8324L46.47 29.6818C46.4712 29.6866 46.4719 29.6899 46.472 29.6903C46.472 29.6904 46.4719 29.6901 46.4711 29.6858C46.4704 29.6826 46.4691 29.6757 46.4675 29.6682C46.4659 29.6604 46.4637 29.6498 46.4608 29.6377L45.8234 29.7904ZM45.8322 29.8324L45.1949 29.985L47.8678 41.1432L48.5051 40.9906L49.1424 40.8379L46.4696 29.6797L45.8322 29.8324ZM48.5051 40.9906L47.869 41.1485C47.89 41.2329 47.8814 41.1928 47.8941 41.2458L48.5315 41.0931L49.1688 40.9404C49.1627 40.9152 49.1566 40.8918 49.152 40.8746C49.147 40.8554 49.1439 40.844 49.1411 40.8327L48.5051 40.9906ZM48.5315 41.0931L47.8941 41.2458C47.9049 41.2906 47.8999 41.2737 47.9163 41.3451L48.5549 41.1976L49.1934 41.0501C49.1905 41.0375 49.1877 41.0247 49.1835 41.0052C49.1796 40.9876 49.1745 40.9646 49.1688 40.9404L48.5315 41.0931ZM48.5549 41.1976L47.918 41.352L47.9492 41.4809L48.5861 41.3265L49.223 41.1721L49.1918 41.0432L48.5549 41.1976ZM48.5861 41.3265V40.6712H48.5842V41.3265V41.9818H48.5861V41.3265ZM48.5842 41.3265L47.9442 41.4674C49.3566 47.8809 45.3761 54.2698 38.9627 55.8064L39.1154 56.4437L39.2681 57.081C46.3778 55.3776 50.7899 48.2953 49.2242 41.1856L48.5842 41.3265ZM39.1154 56.4437L38.9628 55.8064C32.5491 57.3429 26.1048 53.4513 24.4578 47.0938L23.8234 47.2581L23.189 47.4225C25.0149 54.4703 32.1583 58.7844 39.2681 57.081L39.1154 56.4437ZM23.8234 47.2581L23.5304 46.672L23.5265 46.6739L23.8195 47.2601L24.1126 47.8463L24.1165 47.8443L23.8234 47.2581ZM23.8195 47.2601L24.4569 47.1074L21.6737 35.4893L21.0363 35.6419L20.399 35.7946L23.1822 47.4128L23.8195 47.2601ZM21.0363 35.6419L21.4997 36.1053L21.5007 36.1044L21.0373 35.641L20.5739 35.1776L20.5729 35.1785L21.0363 35.6419ZM21.0373 35.641L21.6756 35.4925C20.1726 29.0316 24.1649 22.5596 30.6256 21.0117L30.4729 20.3744L30.3202 19.737C23.1583 21.453 18.7329 28.6274 20.399 35.7894L21.0373 35.641Z" fill="black" mask="url(#path-5-inside-1_61_9863)"/>
<path d="M37.4994 39.0337C37.4994 41.3274 38.6463 43.1297 38.6463 43.1297C38.6463 43.1297 38.0728 44.1127 36.4344 43.785" stroke="#171921" stroke-width="0.655357"/>
<path d="M30.3259 36.5433C31.163 36.4439 31.9313 36.9444 32.2038 37.7056C32.2468 37.8259 32.1255 37.9302 32.002 37.8974C31.6381 37.8007 31.2298 37.7693 30.8054 37.8197C30.0844 37.9054 29.4638 38.2088 29.0601 38.6213C28.9661 38.7175 28.7971 38.6878 28.7783 38.5547C28.7765 38.5415 28.7748 38.5283 28.7732 38.515C28.6576 37.5417 29.3527 36.6591 30.3259 36.5433Z" fill="#171921"/>
<path d="M40.8138 34.9265C41.6425 34.828 42.4036 35.323 42.6741 36.0762C42.7172 36.1964 42.5959 36.3006 42.4725 36.2679C42.1126 36.1725 41.7091 36.1413 41.2894 36.1912C40.5762 36.2759 39.9626 36.5757 39.5627 36.9834C39.4686 37.0793 39.2992 37.0498 39.2805 36.9166C39.2788 36.9044 39.2772 36.892 39.2757 36.8796C39.1613 35.9155 39.8497 35.0412 40.8138 34.9265Z" fill="#171921"/>
<path d="M38.8917 32.6787C39.8201 32.2418 42.0047 31.8431 43.3154 33.7437" stroke="black" stroke-width="0.655357" stroke-linecap="round"/>
<path d="M26.5348 36.8251C26.8741 35.8567 28.1211 34.0194 30.3953 34.4169" stroke="black" stroke-width="0.655357" stroke-linecap="round"/>
<path d="M28.4043 51.3218C28.4043 51.4123 28.3309 51.4856 28.2405 51.4856C28.15 51.4856 28.0766 51.4123 28.0766 51.3218C28.0766 51.2313 28.15 51.158 28.2405 51.158C28.3309 51.158 28.4043 51.2313 28.4043 51.3218Z" fill="black"/>
<path d="M36.9239 52.4687C36.9239 52.5592 36.8506 52.6325 36.7601 52.6325C36.6696 52.6325 36.5963 52.5592 36.5963 52.4687C36.5963 52.3782 36.6696 52.3048 36.7601 52.3048C36.8506 52.3048 36.9239 52.3782 36.9239 52.4687Z" fill="black"/>
<path d="M36.2686 53.6155C36.2686 53.706 36.1952 53.7794 36.1047 53.7794C36.0143 53.7794 35.9409 53.706 35.9409 53.6155C35.9409 53.5251 36.0143 53.4517 36.1047 53.4517C36.1952 53.4517 36.2686 53.5251 36.2686 53.6155Z" fill="black"/>
<path d="M39.5454 53.2879C39.5454 53.3784 39.472 53.4517 39.3815 53.4517C39.291 53.4517 39.2177 53.3784 39.2177 53.2879C39.2177 53.1974 39.291 53.124 39.3815 53.124C39.472 53.124 39.5454 53.1974 39.5454 53.2879Z" fill="black"/>
<path d="M39.7092 51.6495C39.7092 51.74 39.6359 51.8133 39.5454 51.8133C39.4549 51.8133 39.3815 51.74 39.3815 51.6495C39.3815 51.559 39.4549 51.4856 39.5454 51.4856C39.6359 51.4856 39.7092 51.559 39.7092 51.6495Z" fill="black"/>
<path d="M42.986 52.4687C42.986 52.5592 42.9126 52.6325 42.8221 52.6325C42.7317 52.6325 42.6583 52.5592 42.6583 52.4687C42.6583 52.3782 42.7317 52.3048 42.8221 52.3048C42.9126 52.3048 42.986 52.3782 42.986 52.4687Z" fill="black"/>
<path d="M44.6244 50.1749C44.6244 50.2654 44.551 50.3388 44.4605 50.3388C44.3701 50.3388 44.2967 50.2654 44.2967 50.1749C44.2967 50.0844 44.3701 50.0111 44.4605 50.0111C44.551 50.0111 44.6244 50.0844 44.6244 50.1749Z" fill="black"/>
<path d="M26.7659 47.8812C26.7659 47.9717 26.6926 48.045 26.6021 48.045C26.5116 48.045 26.4382 47.9717 26.4382 47.8812C26.4382 47.7907 26.5116 47.7173 26.6021 47.7173C26.6926 47.7173 26.7659 47.7907 26.7659 47.8812Z" fill="black"/>
<path d="M32.1726 50.5026C32.1726 50.5931 32.0992 50.6664 32.0088 50.6664C31.9183 50.6664 31.8449 50.5931 31.8449 50.5026C31.8449 50.4121 31.9183 50.3388 32.0088 50.3388C32.0992 50.3388 32.1726 50.4121 32.1726 50.5026Z" fill="black"/>
<path d="M31.6811 53.7794C31.6811 53.8699 31.6077 53.9432 31.5172 53.9432C31.4268 53.9432 31.3534 53.8699 31.3534 53.7794C31.3534 53.6889 31.4268 53.6155 31.5172 53.6155C31.6077 53.6155 31.6811 53.6889 31.6811 53.7794Z" fill="black"/>
<path d="M34.6302 54.4347C34.6302 54.5252 34.5568 54.5986 34.4664 54.5986C34.3759 54.5986 34.3025 54.5252 34.3025 54.4347C34.3025 54.3443 34.3759 54.2709 34.4664 54.2709C34.5568 54.2709 34.6302 54.3443 34.6302 54.4347Z" fill="black"/>
<path d="M40.2007 50.1749C40.2007 50.2654 40.1274 50.3388 40.0369 50.3388C39.9464 50.3388 39.873 50.2654 39.873 50.1749C39.873 50.0844 39.9464 50.0111 40.0369 50.0111C40.1274 50.0111 40.2007 50.0844 40.2007 50.1749Z" fill="black"/>
<path d="M42.4945 50.8303C42.4945 50.9208 42.4211 50.9941 42.3306 50.9941C42.2401 50.9941 42.1668 50.9208 42.1668 50.8303C42.1668 50.7398 42.2401 50.6664 42.3306 50.6664C42.4211 50.6664 42.4945 50.7398 42.4945 50.8303Z" fill="black"/>
<path d="M41.1838 53.6155C41.1838 53.706 41.1104 53.7794 41.0199 53.7794C40.9294 53.7794 40.8561 53.706 40.8561 53.6155C40.8561 53.5251 40.9294 53.4517 41.0199 53.4517C41.1104 53.4517 41.1838 53.5251 41.1838 53.6155Z" fill="black"/>
<path d="M43.4775 48.5365C43.4775 48.627 43.4042 48.7004 43.3137 48.7004C43.2232 48.7004 43.1498 48.627 43.1498 48.5365C43.1498 48.446 43.2232 48.3727 43.3137 48.3727C43.4042 48.3727 43.4775 48.446 43.4775 48.5365Z" fill="black"/>
<path d="M28.2405 48.8642C28.2405 48.9547 28.1671 49.0281 28.0766 49.0281C27.9861 49.0281 27.9128 48.9547 27.9128 48.8642C27.9128 48.7737 27.9861 48.7004 28.0766 48.7004C28.1671 48.7004 28.2405 48.7737 28.2405 48.8642Z" fill="black"/>
<path d="M32.1726 48.8642C32.1726 48.9547 32.0992 49.0281 32.0088 49.0281C31.9183 49.0281 31.8449 48.9547 31.8449 48.8642C31.8449 48.7737 31.9183 48.7004 32.0088 48.7004C32.0992 48.7004 32.1726 48.7737 32.1726 48.8642Z" fill="black"/>
<path d="M32.1726 45.9151C32.1726 46.0056 32.0992 46.0789 32.0088 46.0789C31.9183 46.0789 31.8449 46.0056 31.8449 45.9151C31.8449 45.8246 31.9183 45.7513 32.0088 45.7513C32.0992 45.7513 32.1726 45.8246 32.1726 45.9151Z" fill="black"/>
<path d="M32.828 54.7624C32.828 54.8529 32.7546 54.9263 32.6641 54.9263C32.5736 54.9263 32.5003 54.8529 32.5003 54.7624C32.5003 54.6719 32.5736 54.5986 32.6641 54.5986C32.7546 54.5986 32.828 54.6719 32.828 54.7624Z" fill="black"/>
<path d="M37.2516 54.7624C37.2516 54.8529 37.1783 54.9263 37.0878 54.9263C36.9973 54.9263 36.9239 54.8529 36.9239 54.7624C36.9239 54.6719 36.9973 54.5986 37.0878 54.5986C37.1783 54.5986 37.2516 54.6719 37.2516 54.7624Z" fill="black"/>
<path d="M39.0538 54.7624C39.0538 54.8529 38.9805 54.9263 38.89 54.9263C38.7995 54.9263 38.7262 54.8529 38.7262 54.7624C38.7262 54.6719 38.7995 54.5986 38.89 54.5986C38.9805 54.5986 39.0538 54.6719 39.0538 54.7624Z" fill="black"/>
<path d="M41.8391 48.8642C41.8391 48.9547 41.7658 49.0281 41.6753 49.0281C41.5848 49.0281 41.5114 48.9547 41.5114 48.8642C41.5114 48.7737 41.5848 48.7004 41.6753 48.7004C41.7658 48.7004 41.8391 48.7737 41.8391 48.8642Z" fill="black"/>
<path d="M41.8391 45.9151C41.8391 46.0056 41.7658 46.0789 41.6753 46.0789C41.5848 46.0789 41.5114 46.0056 41.5114 45.9151C41.5114 45.8246 41.5848 45.7513 41.6753 45.7513C41.7658 45.7513 41.8391 45.8246 41.8391 45.9151Z" fill="black"/>
<path d="M45.1159 48.045C45.1159 48.1355 45.0425 48.2089 44.9521 48.2089C44.8616 48.2089 44.7882 48.1355 44.7882 48.045C44.7882 47.9545 44.8616 47.8812 44.9521 47.8812C45.0425 47.8812 45.1159 47.9545 45.1159 48.045Z" fill="black"/>
<path d="M28.732 46.7343C28.732 46.8248 28.6586 46.8981 28.5681 46.8981C28.4777 46.8981 28.4043 46.8248 28.4043 46.7343C28.4043 46.6438 28.4777 46.5705 28.5681 46.5705C28.6586 46.5705 28.732 46.6438 28.732 46.7343Z" fill="black"/>
<path d="M30.3704 52.4687C30.3704 52.5592 30.297 52.6325 30.2065 52.6325C30.116 52.6325 30.0427 52.5592 30.0427 52.4687C30.0427 52.3782 30.116 52.3048 30.2065 52.3048C30.297 52.3048 30.3704 52.3782 30.3704 52.4687Z" fill="black"/>
<path d="M29.715 53.6155C29.715 53.706 29.6417 53.7794 29.5512 53.7794C29.4607 53.7794 29.3873 53.706 29.3873 53.6155C29.3873 53.5251 29.4607 53.4517 29.5512 53.4517C29.6417 53.4517 29.715 53.5251 29.715 53.6155Z" fill="black"/>
<path d="M36.2686 50.3388C36.2686 50.4293 36.1952 50.5026 36.1047 50.5026C36.0143 50.5026 35.9409 50.4293 35.9409 50.3388C35.9409 50.2483 36.0143 50.1749 36.1047 50.1749C36.1952 50.1749 36.2686 50.2483 36.2686 50.3388Z" fill="black"/>
<path d="M38.2347 50.6664C38.2347 50.7569 38.1613 50.8303 38.0708 50.8303C37.9803 50.8303 37.907 50.7569 37.907 50.6664C37.907 50.576 37.9803 50.5026 38.0708 50.5026C38.1613 50.5026 38.2347 50.576 38.2347 50.6664Z" fill="black"/>
<path d="M35.9409 55.5816C35.9409 55.6721 35.8676 55.7455 35.7771 55.7455C35.6866 55.7455 35.6132 55.6721 35.6132 55.5816C35.6132 55.4911 35.6866 55.4178 35.7771 55.4178C35.8676 55.4178 35.9409 55.4911 35.9409 55.5816Z" fill="black"/>
<path d="M39.7092 47.2258C39.7092 47.3163 39.6359 47.3897 39.5454 47.3897C39.4549 47.3897 39.3815 47.3163 39.3815 47.2258C39.3815 47.1353 39.4549 47.062 39.5454 47.062C39.6359 47.062 39.7092 47.1353 39.7092 47.2258Z" fill="black"/>
<path d="M39.7092 44.2767C39.7092 44.3672 39.6359 44.4406 39.5454 44.4406C39.4549 44.4406 39.3815 44.3672 39.3815 44.2767C39.3815 44.1862 39.4549 44.1129 39.5454 44.1129C39.6359 44.1129 39.7092 44.1862 39.7092 44.2767Z" fill="black"/>
<path d="M43.6413 46.7343C43.6413 46.8248 43.568 46.8981 43.4775 46.8981C43.387 46.8981 43.3137 46.8248 43.3137 46.7343C43.3137 46.6438 43.387 46.5705 43.4775 46.5705C43.568 46.5705 43.6413 46.6438 43.6413 46.7343Z" fill="black"/>
<path d="M44.7882 45.0959C44.7882 45.1864 44.7149 45.2598 44.6244 45.2598C44.5339 45.2598 44.4605 45.1864 44.4605 45.0959C44.4605 45.0054 44.5339 44.9321 44.6244 44.9321C44.7149 44.9321 44.7882 45.0054 44.7882 45.0959Z" fill="black"/>
<path d="M30.2065 48.2089C30.2065 48.2993 30.1332 48.3727 30.0427 48.3727C29.9522 48.3727 29.8789 48.2993 29.8789 48.2089C29.8789 48.1184 29.9522 48.045 30.0427 48.045C30.1332 48.045 30.2065 48.1184 30.2065 48.2089Z" fill="black"/>
<path d="M30.2065 50.0111C30.2065 50.1016 30.1332 50.1749 30.0427 50.1749C29.9522 50.1749 29.8789 50.1016 29.8789 50.0111C29.8789 49.9206 29.9522 49.8472 30.0427 49.8472C30.1332 49.8472 30.2065 49.9206 30.2065 50.0111Z" fill="black"/>
<path d="M33.6472 47.5535C33.6472 47.644 33.5738 47.7173 33.4833 47.7173C33.3928 47.7173 33.3195 47.644 33.3195 47.5535C33.3195 47.463 33.3928 47.3897 33.4833 47.3897C33.5738 47.3897 33.6472 47.463 33.6472 47.5535Z" fill="black"/>
<path d="M33.6472 44.6044C33.6472 44.6949 33.5738 44.7682 33.4833 44.7682C33.3928 44.7682 33.3195 44.6949 33.3195 44.6044C33.3195 44.5139 33.3928 44.4406 33.4833 44.4406C33.5738 44.4406 33.6472 44.5139 33.6472 44.6044Z" fill="black"/>
<path d="M35.6132 46.8981C35.6132 46.9886 35.5399 47.062 35.4494 47.062C35.3589 47.062 35.2855 46.9886 35.2855 46.8981C35.2855 46.8077 35.3589 46.7343 35.4494 46.7343C35.5399 46.7343 35.6132 46.8077 35.6132 46.8981Z" fill="black"/>
<path d="M37.5793 45.9151C37.5793 46.0056 37.5059 46.0789 37.4155 46.0789C37.325 46.0789 37.2516 46.0056 37.2516 45.9151C37.2516 45.8246 37.325 45.7513 37.4155 45.7513C37.5059 45.7513 37.5793 45.8246 37.5793 45.9151Z" fill="black"/>
<path d="M39.7092 45.9151C39.7092 46.0056 39.6359 46.0789 39.5454 46.0789C39.4549 46.0789 39.3815 46.0056 39.3815 45.9151C39.3815 45.8246 39.4549 45.7513 39.5454 45.7513C39.6359 45.7513 39.7092 45.8246 39.7092 45.9151Z" fill="black"/>
<path d="M41.8391 45.9151C41.8391 46.0056 41.7658 46.0789 41.6753 46.0789C41.5848 46.0789 41.5114 46.0056 41.5114 45.9151C41.5114 45.8246 41.5848 45.7513 41.6753 45.7513C41.7658 45.7513 41.8391 45.8246 41.8391 45.9151Z" fill="black"/>
<path d="M46.0989 45.9151C46.0989 46.0056 46.0256 46.0789 45.9351 46.0789C45.8446 46.0789 45.7713 46.0056 45.7713 45.9151C45.7713 45.8246 45.8446 45.7513 45.9351 45.7513C46.0256 45.7513 46.0989 45.8246 46.0989 45.9151Z" fill="black"/>
<path d="M33.3195 52.4687C33.3195 52.5592 33.2461 52.6325 33.1556 52.6325C33.0652 52.6325 32.9918 52.5592 32.9918 52.4687C32.9918 52.3782 33.0652 52.3048 33.1556 52.3048C33.2461 52.3048 33.3195 52.3782 33.3195 52.4687Z" fill="black"/>
<path d="M35.1217 51.4856C35.1217 51.5761 35.0484 51.6495 34.9579 51.6495C34.8674 51.6495 34.794 51.5761 34.794 51.4856C34.794 51.3952 34.8674 51.3218 34.9579 51.3218C35.0484 51.3218 35.1217 51.3952 35.1217 51.4856Z" fill="black"/>
<path d="M34.4664 50.1749C34.4664 50.2654 34.393 50.3388 34.3025 50.3388C34.212 50.3388 34.1387 50.2654 34.1387 50.1749C34.1387 50.0844 34.212 50.0111 34.3025 50.0111C34.393 50.0111 34.4664 50.0844 34.4664 50.1749Z" fill="black"/>
<path d="M38.3985 48.7004C38.3985 48.7909 38.3251 48.8642 38.2347 48.8642C38.1442 48.8642 38.0708 48.7909 38.0708 48.7004C38.0708 48.6099 38.1442 48.5365 38.2347 48.5365C38.3251 48.5365 38.3985 48.6099 38.3985 48.7004Z" fill="black"/>
<path d="M30.3704 45.7513C30.3704 45.8418 30.297 45.9151 30.2065 45.9151C30.116 45.9151 30.0427 45.8418 30.0427 45.7513C30.0427 45.6608 30.116 45.5874 30.2065 45.5874C30.297 45.5874 30.3704 45.6608 30.3704 45.7513Z" fill="black"/>
<path d="M36.4324 48.3727C36.4324 48.4632 36.3591 48.5365 36.2686 48.5365C36.1781 48.5365 36.1047 48.4632 36.1047 48.3727C36.1047 48.2822 36.1781 48.2089 36.2686 48.2089C36.3591 48.2089 36.4324 48.2822 36.4324 48.3727Z" fill="black"/>
<path d="M36.4324 45.4236C36.4324 45.5141 36.3591 45.5874 36.2686 45.5874C36.1781 45.5874 36.1047 45.5141 36.1047 45.4236C36.1047 45.3331 36.1781 45.2598 36.2686 45.2598C36.3591 45.2598 36.4324 45.3331 36.4324 45.4236Z" fill="black"/>
<path d="M42.1668 47.7173C42.1668 47.8078 42.0934 47.8812 42.003 47.8812C41.9125 47.8812 41.8391 47.8078 41.8391 47.7173C41.8391 47.6269 41.9125 47.5535 42.003 47.5535C42.0934 47.5535 42.1668 47.6269 42.1668 47.7173Z" fill="black"/>
<path d="M42.1668 44.7682C42.1668 44.8587 42.0934 44.9321 42.003 44.9321C41.9125 44.9321 41.8391 44.8587 41.8391 44.7682C41.8391 44.6777 41.9125 44.6044 42.003 44.6044C42.0934 44.6044 42.1668 44.6777 42.1668 44.7682Z" fill="black"/>
<path d="M43.3137 45.0959C43.3137 45.1864 43.2403 45.2598 43.1498 45.2598C43.0593 45.2598 42.986 45.1864 42.986 45.0959C42.986 45.0054 43.0593 44.9321 43.1498 44.9321C43.2403 44.9321 43.3137 45.0054 43.3137 45.0959Z" fill="black"/>
<path d="M45.7713 43.6214C45.7713 43.7118 45.6979 43.7852 45.6074 43.7852C45.5169 43.7852 45.4436 43.7118 45.4436 43.6214C45.4436 43.5309 45.5169 43.4575 45.6074 43.4575C45.6979 43.4575 45.7713 43.5309 45.7713 43.6214Z" fill="black"/>
<path d="M28.4043 51.3218C28.4043 51.4123 28.3309 51.4856 28.2405 51.4856C28.15 51.4856 28.0766 51.4123 28.0766 51.3218C28.0766 51.2313 28.15 51.158 28.2405 51.158C28.3309 51.158 28.4043 51.2313 28.4043 51.3218Z" stroke="black" stroke-width="0.163839"/>
<path d="M36.9239 52.4687C36.9239 52.5592 36.8506 52.6325 36.7601 52.6325C36.6696 52.6325 36.5963 52.5592 36.5963 52.4687C36.5963 52.3782 36.6696 52.3048 36.7601 52.3048C36.8506 52.3048 36.9239 52.3782 36.9239 52.4687Z" stroke="black" stroke-width="0.163839"/>
<path d="M36.2686 53.6155C36.2686 53.706 36.1952 53.7794 36.1047 53.7794C36.0143 53.7794 35.9409 53.706 35.9409 53.6155C35.9409 53.5251 36.0143 53.4517 36.1047 53.4517C36.1952 53.4517 36.2686 53.5251 36.2686 53.6155Z" stroke="black" stroke-width="0.163839"/>
<path d="M39.5454 53.2879C39.5454 53.3784 39.472 53.4517 39.3815 53.4517C39.291 53.4517 39.2177 53.3784 39.2177 53.2879C39.2177 53.1974 39.291 53.124 39.3815 53.124C39.472 53.124 39.5454 53.1974 39.5454 53.2879Z" stroke="black" stroke-width="0.163839"/>
<path d="M39.7092 51.6495C39.7092 51.74 39.6359 51.8133 39.5454 51.8133C39.4549 51.8133 39.3815 51.74 39.3815 51.6495C39.3815 51.559 39.4549 51.4856 39.5454 51.4856C39.6359 51.4856 39.7092 51.559 39.7092 51.6495Z" stroke="black" stroke-width="0.163839"/>
<path d="M42.986 52.4687C42.986 52.5592 42.9126 52.6325 42.8221 52.6325C42.7317 52.6325 42.6583 52.5592 42.6583 52.4687C42.6583 52.3782 42.7317 52.3048 42.8221 52.3048C42.9126 52.3048 42.986 52.3782 42.986 52.4687Z" stroke="black" stroke-width="0.163839"/>
<path d="M44.6244 50.1749C44.6244 50.2654 44.551 50.3388 44.4605 50.3388C44.3701 50.3388 44.2967 50.2654 44.2967 50.1749C44.2967 50.0844 44.3701 50.0111 44.4605 50.0111C44.551 50.0111 44.6244 50.0844 44.6244 50.1749Z" stroke="black" stroke-width="0.163839"/>
<path d="M26.7659 47.8812C26.7659 47.9717 26.6926 48.045 26.6021 48.045C26.5116 48.045 26.4382 47.9717 26.4382 47.8812C26.4382 47.7907 26.5116 47.7173 26.6021 47.7173C26.6926 47.7173 26.7659 47.7907 26.7659 47.8812Z" stroke="black" stroke-width="0.163839"/>
<path d="M32.1726 50.5026C32.1726 50.5931 32.0992 50.6664 32.0088 50.6664C31.9183 50.6664 31.8449 50.5931 31.8449 50.5026C31.8449 50.4121 31.9183 50.3388 32.0088 50.3388C32.0992 50.3388 32.1726 50.4121 32.1726 50.5026Z" stroke="black" stroke-width="0.163839"/>
<path d="M31.6811 53.7794C31.6811 53.8699 31.6077 53.9432 31.5172 53.9432C31.4268 53.9432 31.3534 53.8699 31.3534 53.7794C31.3534 53.6889 31.4268 53.6155 31.5172 53.6155C31.6077 53.6155 31.6811 53.6889 31.6811 53.7794Z" stroke="black" stroke-width="0.163839"/>
<path d="M34.6302 54.4347C34.6302 54.5252 34.5568 54.5986 34.4664 54.5986C34.3759 54.5986 34.3025 54.5252 34.3025 54.4347C34.3025 54.3443 34.3759 54.2709 34.4664 54.2709C34.5568 54.2709 34.6302 54.3443 34.6302 54.4347Z" stroke="black" stroke-width="0.163839"/>
<path d="M40.2007 50.1749C40.2007 50.2654 40.1274 50.3388 40.0369 50.3388C39.9464 50.3388 39.873 50.2654 39.873 50.1749C39.873 50.0844 39.9464 50.0111 40.0369 50.0111C40.1274 50.0111 40.2007 50.0844 40.2007 50.1749Z" stroke="black" stroke-width="0.163839"/>
<path d="M42.4945 50.8303C42.4945 50.9208 42.4211 50.9941 42.3306 50.9941C42.2401 50.9941 42.1668 50.9208 42.1668 50.8303C42.1668 50.7398 42.2401 50.6664 42.3306 50.6664C42.4211 50.6664 42.4945 50.7398 42.4945 50.8303Z" stroke="black" stroke-width="0.163839"/>
<path d="M41.1838 53.6155C41.1838 53.706 41.1104 53.7794 41.0199 53.7794C40.9294 53.7794 40.8561 53.706 40.8561 53.6155C40.8561 53.5251 40.9294 53.4517 41.0199 53.4517C41.1104 53.4517 41.1838 53.5251 41.1838 53.6155Z" stroke="black" stroke-width="0.163839"/>
<path d="M43.4775 48.5365C43.4775 48.627 43.4042 48.7004 43.3137 48.7004C43.2232 48.7004 43.1498 48.627 43.1498 48.5365C43.1498 48.446 43.2232 48.3727 43.3137 48.3727C43.4042 48.3727 43.4775 48.446 43.4775 48.5365Z" stroke="black" stroke-width="0.163839"/>
<path d="M28.2405 48.8642C28.2405 48.9547 28.1671 49.0281 28.0766 49.0281C27.9861 49.0281 27.9128 48.9547 27.9128 48.8642C27.9128 48.7737 27.9861 48.7004 28.0766 48.7004C28.1671 48.7004 28.2405 48.7737 28.2405 48.8642Z" stroke="black" stroke-width="0.163839"/>
<path d="M32.1726 48.8642C32.1726 48.9547 32.0992 49.0281 32.0088 49.0281C31.9183 49.0281 31.8449 48.9547 31.8449 48.8642C31.8449 48.7737 31.9183 48.7004 32.0088 48.7004C32.0992 48.7004 32.1726 48.7737 32.1726 48.8642Z" stroke="black" stroke-width="0.163839"/>
<path d="M32.1726 45.9151C32.1726 46.0056 32.0992 46.0789 32.0088 46.0789C31.9183 46.0789 31.8449 46.0056 31.8449 45.9151C31.8449 45.8246 31.9183 45.7513 32.0088 45.7513C32.0992 45.7513 32.1726 45.8246 32.1726 45.9151Z" stroke="black" stroke-width="0.163839"/>
<path d="M32.828 54.7624C32.828 54.8529 32.7546 54.9263 32.6641 54.9263C32.5736 54.9263 32.5003 54.8529 32.5003 54.7624C32.5003 54.6719 32.5736 54.5986 32.6641 54.5986C32.7546 54.5986 32.828 54.6719 32.828 54.7624Z" stroke="black" stroke-width="0.163839"/>
<path d="M37.2516 54.7624C37.2516 54.8529 37.1783 54.9263 37.0878 54.9263C36.9973 54.9263 36.9239 54.8529 36.9239 54.7624C36.9239 54.6719 36.9973 54.5986 37.0878 54.5986C37.1783 54.5986 37.2516 54.6719 37.2516 54.7624Z" stroke="black" stroke-width="0.163839"/>
<path d="M39.0538 54.7624C39.0538 54.8529 38.9805 54.9263 38.89 54.9263C38.7995 54.9263 38.7262 54.8529 38.7262 54.7624C38.7262 54.6719 38.7995 54.5986 38.89 54.5986C38.9805 54.5986 39.0538 54.6719 39.0538 54.7624Z" stroke="black" stroke-width="0.163839"/>
<path d="M41.8391 48.8642C41.8391 48.9547 41.7658 49.0281 41.6753 49.0281C41.5848 49.0281 41.5114 48.9547 41.5114 48.8642C41.5114 48.7737 41.5848 48.7004 41.6753 48.7004C41.7658 48.7004 41.8391 48.7737 41.8391 48.8642Z" stroke="black" stroke-width="0.163839"/>
<path d="M41.8391 45.9151C41.8391 46.0056 41.7658 46.0789 41.6753 46.0789C41.5848 46.0789 41.5114 46.0056 41.5114 45.9151C41.5114 45.8246 41.5848 45.7513 41.6753 45.7513C41.7658 45.7513 41.8391 45.8246 41.8391 45.9151Z" stroke="black" stroke-width="0.163839"/>
<path d="M45.1159 48.045C45.1159 48.1355 45.0425 48.2089 44.9521 48.2089C44.8616 48.2089 44.7882 48.1355 44.7882 48.045C44.7882 47.9545 44.8616 47.8812 44.9521 47.8812C45.0425 47.8812 45.1159 47.9545 45.1159 48.045Z" stroke="black" stroke-width="0.163839"/>
<path d="M28.732 46.7343C28.732 46.8248 28.6586 46.8981 28.5681 46.8981C28.4777 46.8981 28.4043 46.8248 28.4043 46.7343C28.4043 46.6438 28.4777 46.5705 28.5681 46.5705C28.6586 46.5705 28.732 46.6438 28.732 46.7343Z" stroke="black" stroke-width="0.163839"/>
<path d="M30.3704 52.4687C30.3704 52.5592 30.297 52.6325 30.2065 52.6325C30.116 52.6325 30.0427 52.5592 30.0427 52.4687C30.0427 52.3782 30.116 52.3048 30.2065 52.3048C30.297 52.3048 30.3704 52.3782 30.3704 52.4687Z" stroke="black" stroke-width="0.163839"/>
<path d="M29.715 53.6155C29.715 53.706 29.6417 53.7794 29.5512 53.7794C29.4607 53.7794 29.3873 53.706 29.3873 53.6155C29.3873 53.5251 29.4607 53.4517 29.5512 53.4517C29.6417 53.4517 29.715 53.5251 29.715 53.6155Z" stroke="black" stroke-width="0.163839"/>
<path d="M36.2686 50.3388C36.2686 50.4293 36.1952 50.5026 36.1047 50.5026C36.0143 50.5026 35.9409 50.4293 35.9409 50.3388C35.9409 50.2483 36.0143 50.1749 36.1047 50.1749C36.1952 50.1749 36.2686 50.2483 36.2686 50.3388Z" stroke="black" stroke-width="0.163839"/>
<path d="M38.2347 50.6664C38.2347 50.7569 38.1613 50.8303 38.0708 50.8303C37.9803 50.8303 37.907 50.7569 37.907 50.6664C37.907 50.576 37.9803 50.5026 38.0708 50.5026C38.1613 50.5026 38.2347 50.576 38.2347 50.6664Z" stroke="black" stroke-width="0.163839"/>
<path d="M35.9409 55.5816C35.9409 55.6721 35.8676 55.7455 35.7771 55.7455C35.6866 55.7455 35.6132 55.6721 35.6132 55.5816C35.6132 55.4911 35.6866 55.4178 35.7771 55.4178C35.8676 55.4178 35.9409 55.4911 35.9409 55.5816Z" stroke="black" stroke-width="0.163839"/>
<path d="M39.7092 47.2258C39.7092 47.3163 39.6359 47.3897 39.5454 47.3897C39.4549 47.3897 39.3815 47.3163 39.3815 47.2258C39.3815 47.1353 39.4549 47.062 39.5454 47.062C39.6359 47.062 39.7092 47.1353 39.7092 47.2258Z" stroke="black" stroke-width="0.163839"/>
<path d="M39.7092 44.2767C39.7092 44.3672 39.6359 44.4406 39.5454 44.4406C39.4549 44.4406 39.3815 44.3672 39.3815 44.2767C39.3815 44.1862 39.4549 44.1129 39.5454 44.1129C39.6359 44.1129 39.7092 44.1862 39.7092 44.2767Z" stroke="black" stroke-width="0.163839"/>
<path d="M43.6413 46.7343C43.6413 46.8248 43.568 46.8981 43.4775 46.8981C43.387 46.8981 43.3137 46.8248 43.3137 46.7343C43.3137 46.6438 43.387 46.5705 43.4775 46.5705C43.568 46.5705 43.6413 46.6438 43.6413 46.7343Z" stroke="black" stroke-width="0.163839"/>
<path d="M44.7882 45.0959C44.7882 45.1864 44.7149 45.2598 44.6244 45.2598C44.5339 45.2598 44.4605 45.1864 44.4605 45.0959C44.4605 45.0054 44.5339 44.9321 44.6244 44.9321C44.7149 44.9321 44.7882 45.0054 44.7882 45.0959Z" stroke="black" stroke-width="0.163839"/>
<path d="M30.2065 48.2089C30.2065 48.2993 30.1332 48.3727 30.0427 48.3727C29.9522 48.3727 29.8789 48.2993 29.8789 48.2089C29.8789 48.1184 29.9522 48.045 30.0427 48.045C30.1332 48.045 30.2065 48.1184 30.2065 48.2089Z" stroke="black" stroke-width="0.163839"/>
<path d="M30.2065 50.0111C30.2065 50.1016 30.1332 50.1749 30.0427 50.1749C29.9522 50.1749 29.8789 50.1016 29.8789 50.0111C29.8789 49.9206 29.9522 49.8472 30.0427 49.8472C30.1332 49.8472 30.2065 49.9206 30.2065 50.0111Z" stroke="black" stroke-width="0.163839"/>
<path d="M33.6472 47.5535C33.6472 47.644 33.5738 47.7173 33.4833 47.7173C33.3928 47.7173 33.3195 47.644 33.3195 47.5535C33.3195 47.463 33.3928 47.3897 33.4833 47.3897C33.5738 47.3897 33.6472 47.463 33.6472 47.5535Z" stroke="black" stroke-width="0.163839"/>
<path d="M33.6472 44.6044C33.6472 44.6949 33.5738 44.7682 33.4833 44.7682C33.3928 44.7682 33.3195 44.6949 33.3195 44.6044C33.3195 44.5139 33.3928 44.4406 33.4833 44.4406C33.5738 44.4406 33.6472 44.5139 33.6472 44.6044Z" stroke="black" stroke-width="0.163839"/>
<path d="M35.6132 46.8981C35.6132 46.9886 35.5399 47.062 35.4494 47.062C35.3589 47.062 35.2855 46.9886 35.2855 46.8981C35.2855 46.8077 35.3589 46.7343 35.4494 46.7343C35.5399 46.7343 35.6132 46.8077 35.6132 46.8981Z" stroke="black" stroke-width="0.163839"/>
<path d="M37.5793 45.9151C37.5793 46.0056 37.5059 46.0789 37.4155 46.0789C37.325 46.0789 37.2516 46.0056 37.2516 45.9151C37.2516 45.8246 37.325 45.7513 37.4155 45.7513C37.5059 45.7513 37.5793 45.8246 37.5793 45.9151Z" stroke="black" stroke-width="0.163839"/>
<path d="M39.7092 45.9151C39.7092 46.0056 39.6359 46.0789 39.5454 46.0789C39.4549 46.0789 39.3815 46.0056 39.3815 45.9151C39.3815 45.8246 39.4549 45.7513 39.5454 45.7513C39.6359 45.7513 39.7092 45.8246 39.7092 45.9151Z" stroke="black" stroke-width="0.163839"/>
<path d="M41.8391 45.9151C41.8391 46.0056 41.7658 46.0789 41.6753 46.0789C41.5848 46.0789 41.5114 46.0056 41.5114 45.9151C41.5114 45.8246 41.5848 45.7513 41.6753 45.7513C41.7658 45.7513 41.8391 45.8246 41.8391 45.9151Z" stroke="black" stroke-width="0.163839"/>
<path d="M46.0989 45.9151C46.0989 46.0056 46.0256 46.0789 45.9351 46.0789C45.8446 46.0789 45.7713 46.0056 45.7713 45.9151C45.7713 45.8246 45.8446 45.7513 45.9351 45.7513C46.0256 45.7513 46.0989 45.8246 46.0989 45.9151Z" stroke="black" stroke-width="0.163839"/>
<path d="M33.3195 52.4687C33.3195 52.5592 33.2461 52.6325 33.1556 52.6325C33.0652 52.6325 32.9918 52.5592 32.9918 52.4687C32.9918 52.3782 33.0652 52.3048 33.1556 52.3048C33.2461 52.3048 33.3195 52.3782 33.3195 52.4687Z" stroke="black" stroke-width="0.163839"/>
<path d="M35.1217 51.4856C35.1217 51.5761 35.0484 51.6495 34.9579 51.6495C34.8674 51.6495 34.794 51.5761 34.794 51.4856C34.794 51.3952 34.8674 51.3218 34.9579 51.3218C35.0484 51.3218 35.1217 51.3952 35.1217 51.4856Z" stroke="black" stroke-width="0.163839"/>
<path d="M34.4664 50.1749C34.4664 50.2654 34.393 50.3388 34.3025 50.3388C34.212 50.3388 34.1387 50.2654 34.1387 50.1749C34.1387 50.0844 34.212 50.0111 34.3025 50.0111C34.393 50.0111 34.4664 50.0844 34.4664 50.1749Z" stroke="black" stroke-width="0.163839"/>
<path d="M38.3985 48.7004C38.3985 48.7909 38.3251 48.8642 38.2347 48.8642C38.1442 48.8642 38.0708 48.7909 38.0708 48.7004C38.0708 48.6099 38.1442 48.5365 38.2347 48.5365C38.3251 48.5365 38.3985 48.6099 38.3985 48.7004Z" stroke="black" stroke-width="0.163839"/>
<path d="M30.3704 45.7513C30.3704 45.8418 30.297 45.9151 30.2065 45.9151C30.116 45.9151 30.0427 45.8418 30.0427 45.7513C30.0427 45.6608 30.116 45.5874 30.2065 45.5874C30.297 45.5874 30.3704 45.6608 30.3704 45.7513Z" stroke="black" stroke-width="0.163839"/>
<path d="M36.4324 48.3727C36.4324 48.4632 36.3591 48.5365 36.2686 48.5365C36.1781 48.5365 36.1047 48.4632 36.1047 48.3727C36.1047 48.2822 36.1781 48.2089 36.2686 48.2089C36.3591 48.2089 36.4324 48.2822 36.4324 48.3727Z" stroke="black" stroke-width="0.163839"/>
<path d="M36.4324 45.4236C36.4324 45.5141 36.3591 45.5874 36.2686 45.5874C36.1781 45.5874 36.1047 45.5141 36.1047 45.4236C36.1047 45.3331 36.1781 45.2598 36.2686 45.2598C36.3591 45.2598 36.4324 45.3331 36.4324 45.4236Z" stroke="black" stroke-width="0.163839"/>
<path d="M42.1668 47.7173C42.1668 47.8078 42.0934 47.8812 42.003 47.8812C41.9125 47.8812 41.8391 47.8078 41.8391 47.7173C41.8391 47.6269 41.9125 47.5535 42.003 47.5535C42.0934 47.5535 42.1668 47.6269 42.1668 47.7173Z" stroke="black" stroke-width="0.163839"/>
<path d="M42.1668 44.7682C42.1668 44.8587 42.0934 44.9321 42.003 44.9321C41.9125 44.9321 41.8391 44.8587 41.8391 44.7682C41.8391 44.6777 41.9125 44.6044 42.003 44.6044C42.0934 44.6044 42.1668 44.6777 42.1668 44.7682Z" stroke="black" stroke-width="0.163839"/>
<path d="M43.3137 45.0959C43.3137 45.1864 43.2403 45.2598 43.1498 45.2598C43.0593 45.2598 42.986 45.1864 42.986 45.0959C42.986 45.0054 43.0593 44.9321 43.1498 44.9321C43.2403 44.9321 43.3137 45.0054 43.3137 45.0959Z" stroke="black" stroke-width="0.163839"/>
<path d="M45.7713 43.6214C45.7713 43.7118 45.6979 43.7852 45.6074 43.7852C45.5169 43.7852 45.4436 43.7118 45.4436 43.6214C45.4436 43.5309 45.5169 43.4575 45.6074 43.4575C45.6979 43.4575 45.7713 43.5309 45.7713 43.6214Z" stroke="black" stroke-width="0.163839"/>
<path d="M23.0192 37.0769C22.6187 37.0429 22.2023 37.0732 21.7919 37.1709C20.1194 37.5688 19.01 38.9274 19.6244 40.8021C20.2645 42.755 21.6249 43.1892 23.2975 42.7913C23.4836 42.747 23.6619 42.6873 23.8313 42.614C24.0161 42.5339 24.1903 42.4376 24.3525 42.3272" stroke="#171921" stroke-width="1.31071"/>
<path d="M24.4247 42.2766C24.097 42.5133 23.7171 42.6915 23.2975 42.7913C21.6249 43.1892 20.2645 42.755 19.6244 40.8021C19.01 38.9274 20.1194 37.5688 21.7919 37.1709C22.292 37.0519 22.801 37.0329 23.2793 37.1083L24.4247 42.2766Z" fill="#FFEDEF"/>
<path d="M22.8187 38.3579C22.1117 38.2173 20.6724 38.397 20.5718 40.2397" stroke="#171921" stroke-width="0.655357"/>
<path d="M21.1641 38.8359C21.5789 39.046 22.4526 39.7925 22.6285 41.0979" stroke="#171921" stroke-width="0.655357"/>
<path d="M32.1417 47.2634C32.9191 47.3599 35.6042 47.6556 37.3773 47.4117C38.9932 47.1894 41.285 46.3215 41.9781 46.0484C42.2715 45.9328 42.6179 46.1212 42.646 46.4597C42.6997 47.1118 42.6386 47.7692 42.464 48.401C42.2692 49.1061 41.9368 49.7655 41.487 50.3423C41.0372 50.9191 40.4786 51.4022 39.8423 51.763C39.2061 52.1238 38.5046 52.3556 37.7787 52.4454C37.0527 52.5352 36.316 52.4814 35.6109 52.2866C34.9058 52.0917 34.2455 51.7595 33.6687 51.3096C33.092 50.8599 32.6097 50.301 32.2489 49.6649C31.9254 49.0943 31.705 48.4715 31.5983 47.8256C31.5437 47.4955 31.8257 47.2241 32.1417 47.2634Z" fill="#171921" stroke="#171921" stroke-width="0.655357"/>
<mask id="mask2_61_9863" style="mask-type:alpha" maskUnits="userSpaceOnUse" x="31" y="46" width="12" height="7">
<path d="M42.2976 46.2735C42.3821 46.9568 42.3313 47.6501 42.1479 48.3137C41.9645 48.9774 41.6522 49.5984 41.2288 50.1413C40.8054 50.6842 40.2793 51.1385 39.6803 51.4781C39.0814 51.8176 38.4215 52.0359 37.7382 52.1205C37.0549 52.205 36.3616 52.1541 35.698 51.9708C35.0344 51.7874 34.4133 51.4751 33.8704 51.0517C33.3275 50.6283 32.8732 50.1021 32.5337 49.5032C32.1941 48.9043 31.9758 48.2443 31.8912 47.561L42.2976 46.2735Z" fill="#171921"/>
</mask>
<g mask="url(#mask2_61_9863)">
<circle cx="37.8295" cy="52.8471" r="3.52254" transform="rotate(-7.05286 37.8295 52.8471)" fill="#FC909F"/>
</g>
<circle cx="22.0194" cy="41.9825" r="0.655357" fill="#AC6651"/>
<path d="M25.9781 21.1079C28.4442 20.105 30.8922 19.9301 32.2086 20.0708L32.234 20.0728C35.8025 20.1781 38.7262 21.7601 40.8434 23.6685C42.8508 25.4781 44.1014 27.5536 44.4928 28.8853C44.2633 29.0061 43.9572 29.1209 43.5758 29.2241C43.0791 29.3585 42.4783 29.4694 41.8014 29.5601C40.4479 29.7413 38.8142 29.8377 37.1461 29.8833C33.8103 29.9746 30.37 29.8625 28.816 29.8286L27.8239 29.8071L28.608 30.4146C28.9531 30.6822 29.4092 30.8669 29.8864 30.9956C30.3677 31.1254 30.8938 31.2045 31.3961 31.2495C31.8412 31.2894 32.2775 31.3022 32.6578 31.2983C31.2608 32.3448 29.5129 33.1585 27.7838 33.7661C25.7777 34.471 23.825 34.891 22.5377 35.0874C21.0819 34.2933 18.5351 31.6493 19.691 27.0151C21.0787 23.9109 23.5266 22.105 25.9781 21.1079Z" fill="#E9B578" stroke="#171921" stroke-width="0.655348"/>
</g>
<path d="M17.8455 28.4592C18.1773 30.3173 20.3063 34.2656 21.3294 36.0076C21.3294 33.685 23.0569 32.046 23.8035 31.6866C27.785 24.7188 36.8962 20.1642 41.0713 18.5882C37.0892 14.407 30.1497 13.9556 25.1814 16.8977C24.0761 17.5523 23.1385 18.2606 22.4907 18.92C21.4188 20.0111 17.0445 23.9739 17.8455 28.4592Z" fill="url(#paint0_linear_61_9863)" stroke="black" stroke-width="0.655348"/>
<path d="M45.3825 17.5928C35.5116 18.0075 23.6713 29.1118 22.126 33.3477C26.1905 28.9514 35.6467 19.4454 46.9278 19.5781C47.7297 19.7163 50.2624 20.109 51.3241 21.2371C50.9094 18.4168 47.7881 17.5928 45.3825 17.5928Z" fill="black"/>
<path d="M45.4349 30.2422C43.4442 23.9895 29.4975 30.2358 22.2257 33.1798C36.2274 17.9232 47.6912 17.6701 51.0921 20.4056C52.6183 23.9071 48.2552 28.7051 45.4349 30.2422Z" fill="black"/>
<path d="M42.9618 61.6689C43.6752 61.4967 44.4381 61.5469 45.2401 61.7842C46.8552 62.2619 48.5829 63.4855 50.2684 65.0586C53.3598 67.9437 56.195 71.8935 57.7977 74.1387H12.5077C13.2568 72.6131 14.6572 69.7512 16.4843 67.1934C17.5119 65.7548 18.6625 64.4299 19.8925 63.498C21.1226 62.566 22.4025 62.0483 23.703 62.1621C26.4383 62.4016 28.8467 64.0182 31.2958 65.5107C33.6989 66.9753 36.1649 68.3348 38.8768 67.7402C39.7941 67.5391 40.4119 67.1083 40.8007 66.5527C41.1838 66.005 41.3217 65.3683 41.3456 64.7861C41.3694 64.2031 41.2802 63.6518 41.1874 63.251C41.144 63.0638 41.0991 62.9071 41.0634 62.792C41.6661 62.1844 42.3025 61.8282 42.9618 61.6689Z" fill="black" stroke="black" stroke-width="0.700299"/>
</g>
</g>
<defs>
<linearGradient id="paint0_linear_61_9863" x1="29.4097" y1="14.4331" x2="23.8864" y2="31.7695" gradientUnits="userSpaceOnUse">
<stop stop-color="#FF9737"/>
<stop offset="1" stop-color="#FF9737"/>
</linearGradient>
<clipPath id="clip0_61_9863">
<rect width="72" height="72" fill="white"/>
</clipPath>
<clipPath id="clip1_61_9863">
<rect width="33.1797" height="53.0876" fill="white" transform="translate(18.4126 16.4238)"/>
</clipPath>
</defs>
</svg>
