<svg width="24" height="24" viewBox="0 0 24 24" fill="none" xmlns="http://www.w3.org/2000/svg">
<path d="M3.76453 13.3726V11.0849C3.76453 6.53663 7.45166 2.84949 12 2.84949C16.5483 2.84949 20.2354 6.53663 20.2354 11.0849V13.9856" stroke="currentColor" stroke-width="1.69904"/>
<path d="M2.84949 17.4902V16.1565C2.84949 14.1351 4.48822 12.4963 6.50969 12.4963C7.52042 12.4963 8.33979 13.3157 8.33979 14.3264V19.3203C8.33979 20.3311 7.52042 21.1504 6.50969 21.1504C4.48822 21.1504 2.84949 19.5117 2.84949 17.4902Z" stroke="currentColor" stroke-width="1.69904"/>
<path d="M21.1505 17.4902V16.1565C21.1505 14.1351 19.5118 12.4963 17.4903 12.4963C16.4796 12.4963 15.6602 13.3157 15.6602 14.3264V19.3203C15.6602 20.3311 16.4796 21.1504 17.4903 21.1504C19.5118 21.1504 21.1505 19.5117 21.1505 17.4902Z" stroke="currentColor" stroke-width="1.69904"/>
</svg>
