<svg width="24" height="24" viewBox="0 0 24 24" fill="none" xmlns="http://www.w3.org/2000/svg">
<path fill-rule="evenodd" clip-rule="evenodd" d="M16.9296 11.7014L18.4219 10.2092L18.5834 10.0297C19.2899 9.16363 19.2898 7.91401 18.5834 7.04794L18.4219 6.8684L14.2455 2.69205C13.3805 1.82713 12.0114 1.77282 11.0836 2.52978L10.9047 2.69205L3.38755 10.2092C2.46505 11.1318 2.46505 12.6275 3.38755 13.55L7.5639 17.7264L7.74275 17.8886C8.60883 18.5951 9.8591 18.5945 10.7252 17.8879L10.9047 17.7264L12.397 16.2341L15.7428 19.5799C16.9946 20.8316 19.0237 20.8317 20.2755 19.5799C21.5272 18.3282 21.5271 16.2991 20.2755 15.0473L16.9296 11.7014ZM15.7281 12.903L13.5985 15.0326L16.9443 18.3784C17.5323 18.9661 18.4854 18.9656 19.0732 18.3777C19.6611 17.7898 19.6617 16.8367 19.0739 16.2488L15.7281 12.903ZM17.2196 9.00699L9.70248 16.5241C9.44387 16.7827 9.02479 16.7826 8.76612 16.5241L4.58977 12.3478C4.33116 12.0891 4.33117 11.6701 4.58977 11.4114L12.1069 3.89427C12.3656 3.63569 12.7846 3.63567 13.0433 3.89427L17.2196 8.07062C17.4781 8.32929 17.4782 8.74837 17.2196 9.00699Z" fill="currentColor"/>
<path d="M2.89832 21.1017H7.62306" stroke="currentColor" stroke-width="1.7" stroke-linecap="round"/>
</svg>
