<svg width="24" height="24" viewBox="0 0 24 24" fill="none" xmlns="http://www.w3.org/2000/svg">
<path d="M12 2.84961C17.0537 2.84961 21.1505 6.94643 21.1505 12.0001C21.1505 17.0538 17.0537 21.1506 12 21.1506C6.94631 21.1506 2.84949 17.0538 2.84949 12.0001C2.84949 6.94643 6.94631 2.84961 12 2.84961Z" stroke="#EB216F" stroke-width="1.69905" stroke-linecap="round"/>
<path d="M11.0849 14.7452L9.25483 12.9151C8.74947 12.4097 8.74946 11.5903 9.25483 11.0849L11.0849 9.25485C11.5903 8.74948 12.4097 8.74948 12.915 9.25485L14.7451 11.0849C15.2505 11.5903 15.2505 12.4097 14.7451 12.9151L12.915 14.7452C12.4097 15.2505 11.5903 15.2505 11.0849 14.7452Z" stroke="#EB216F" stroke-width="1.69905" stroke-linecap="round"/>
</svg>
