<svg width="54" height="54" viewBox="0 0 54 54" fill="none" xmlns="http://www.w3.org/2000/svg">
<path d="M40.1337 6.28223H14.9752C12.6594 6.28223 10.7821 8.15954 10.7821 10.4753V42.2832C10.7821 43.3953 11.2239 44.4618 12.0102 45.2482L12.5384 45.7764C13.8842 47.1222 16.0662 47.1222 17.412 45.7764C18.4608 44.7275 20.0632 44.4675 21.3899 45.1308L25.6793 47.2755C26.8597 47.8658 28.2492 47.8658 29.4297 47.2755L34.0654 44.9577C35.2459 44.3674 36.6354 44.3674 37.8159 44.9577L38.2585 45.179C41.0465 46.573 44.3268 44.5456 44.3268 41.4286V10.4753C44.3268 8.15954 42.4495 6.28223 40.1337 6.28223Z" stroke="#EB216F" stroke-width="3.82501" stroke-linecap="round"/>
<path d="M22.9119 24.851L24.0621 26.0012C24.6974 26.6365 25.7273 26.6365 26.3626 26.0012L32.1138 20.25" stroke="#EB216F" stroke-width="3.82501" stroke-linecap="round"/>
<path d="M19.1683 35.6338H35.9406" stroke="#EB216F" stroke-width="3.82501" stroke-linecap="round"/>
</svg>
