<svg width="24" height="24" viewBox="0 0 24 24" fill="none" xmlns="http://www.w3.org/2000/svg">
<path d="M11.0837 2.52923C12.0115 1.77249 13.3809 1.82656 14.2458 2.69134L18.4216 6.8681L18.5837 7.04779C19.2899 7.91378 19.2899 9.16327 18.5837 10.0292L18.4216 10.2089L16.9294 11.7011L20.2751 15.0468C21.5268 16.2986 21.5269 18.3283 20.2751 19.58C19.0234 20.8313 16.9946 20.8313 15.7429 19.58L12.3962 16.2333L10.905 17.7265L10.7253 17.8876C9.85932 18.5941 8.60897 18.5949 7.74289 17.8886L7.56418 17.7265L3.38742 13.5497C2.46502 12.6272 2.46501 11.1315 3.38742 10.2089L10.905 2.69134L11.0837 2.52923ZM13.5984 15.0322L16.9441 18.3779C17.5319 18.9655 18.4851 18.9654 19.073 18.3779C19.6608 17.7901 19.6615 16.8369 19.0739 16.249L15.7273 12.9023L13.5984 15.0322ZM13.0437 3.89447C12.785 3.63587 12.3658 3.63589 12.1071 3.89447L4.58957 11.4111C4.33106 11.6697 4.33106 12.0889 4.58957 12.3476L8.76633 16.5244C9.025 16.7825 9.44434 16.7827 9.70285 16.5244L17.2195 9.00677C17.478 8.74815 17.4779 8.32892 17.2195 8.07025L13.0437 3.89447Z" fill="#EB216F"/>
<path d="M2.89832 21.1016H7.62306" stroke="#EB216F" stroke-width="1.7" stroke-linecap="round"/>
</svg>
