<svg width="267" height="238" viewBox="0 0 267 238" fill="none" xmlns="http://www.w3.org/2000/svg">
<path d="M266.711 77.5355C267.088 95.5112 265.957 113.325 261.114 130.924C257.561 143.949 250.35 151.376 237.272 154.336C212.999 159.772 188.619 163.916 163.754 164.669C157.134 164.884 150.515 165.369 143.895 166.068C137.759 166.768 132.593 169.298 128.556 174.357C122.152 182.43 115.155 189.964 108.912 198.145C99.3323 210.685 88.4608 221.772 75.3288 230.598C73.3913 231.89 64.9417 238.994 62.8427 237.595C60.7976 236.572 61.7663 232.213 62.7351 230.221C67.6326 220.265 74.0372 210.954 78.0198 200.674C82.9712 187.973 86.3618 174.626 89.9139 161.44C91.959 154.013 89.8063 152.667 81.9486 151.591C61.7125 148.792 41.4764 145.617 21.3479 141.904C8.16216 139.482 2.78021 129.31 1.70382 117.2C-0.987147 88.1379 -1.14861 59.0754 6.11702 30.4434C6.92431 27.3757 7.57014 24.2004 8.0007 21.0789C9.72292 9.45385 13.3288 6.65524 24.8462 4.71774C57.3531 -0.879482 90.0754 -0.0183708 122.798 0.143088C154.497 0.304546 186.251 0.735101 217.95 1.21948C225.431 1.32711 232.966 1.81149 240.393 2.72642C251.265 4.07191 258.907 10.4764 261.221 20.9174C263.966 33.1882 265.204 45.782 266.549 58.2681C267.249 64.6188 266.711 71.0771 266.711 77.5355ZM86.308 210.792C85.8774 212.138 86.5233 212.407 87.0615 211.654C91.6361 206.11 96.4261 200.621 100.839 194.916C106.975 186.95 112.68 178.662 119.03 170.805C123.928 164.723 130.063 161.117 138.513 161.655C144.864 162.032 151.376 161.386 157.673 160.364C185.282 155.95 212.838 151.214 240.447 146.693C248.143 145.402 252.772 140.719 253.902 133.454C255.14 125.704 255.355 117.739 255.624 109.827C256.324 89.6987 257.292 69.624 257.185 49.4955C257.131 41.2611 255.409 32.8653 253.094 24.9C248.897 10.4226 238.456 4.55628 223.601 6.43996C213.86 7.67781 204.011 8.86184 194.27 8.7542C164.938 8.4851 135.607 7.40871 106.275 6.92434C86.0927 6.60142 65.9642 6.5476 45.8358 6.43996C19.7872 6.27851 9.18473 22.1014 10.4764 43.7368C11.6066 63.1657 10.7993 82.7021 11.0146 102.185C11.0684 108.805 11.5528 115.424 12.0372 122.044C12.4677 127.641 15.4278 131.839 20.7021 133.723C28.5059 136.522 36.2559 139.697 44.3288 141.258C56.6535 143.572 69.2472 144.433 81.6795 146.263C95.0267 148.2 98.8479 153.044 98.3097 166.445C98.2021 168.544 98.0406 170.751 97.4486 172.796C93.7889 185.443 90.0215 198.091 86.308 210.792Z" fill="white"/>
<path d="M73.768 70.8075C74.0371 93.5193 64.0805 109.181 44.8132 116.662C37.0094 119.676 32.2194 116.446 33.2958 108.32C35.8253 90.1287 38.4625 71.9915 41.6378 53.9082C43.7906 41.6374 51.7559 38.6235 62.9503 45.0818C70.3774 49.3874 72.5302 56.653 73.7142 64.403C74.0372 66.4481 73.768 68.6547 73.768 70.8075ZM45.4052 105.629C47.4503 105.198 48.0962 105.198 48.6344 104.929C64.0267 97.8249 73.0146 74.1981 66.7177 57.5679C64.7264 52.2398 61.4434 48.5263 54.5545 48.311C51.5406 67.3631 48.5267 86.0922 45.4052 105.629Z" fill="white"/>
<path d="M121.667 71.0226C120.806 83.0781 117.254 95.1337 106.921 104.175C98.3636 111.656 88.9452 109.719 83.7247 99.493C78.2351 88.6753 80.6032 77.8038 84.1552 67.0938C85.2854 63.6493 86.9539 60.3663 88.7837 57.2448C95.1344 46.5347 97.6639 46.6424 108.105 47.6649C114.563 48.3108 120.214 55.8993 121.291 64.026C121.56 65.9635 121.506 67.9549 121.667 71.0226ZM91.3132 90.559C91.9591 96.2101 94.65 98.5243 96.9643 98.9549C99.8167 99.4392 104.284 96.9097 106.436 94.3264C113.756 85.5 116.232 75.059 113.541 63.7569C112.949 61.2274 111.28 58.5903 109.343 56.8142C104.93 52.724 101.001 53.2083 98.6327 58.7517C91.2056 75.974 90.9365 87.0608 91.3132 90.559Z" fill="white"/>
<path d="M161.871 87.7616C163.485 74.7911 164.723 62.9508 166.499 51.1644C166.822 48.9578 166.876 45.029 170.697 45.029C175.917 45.029 173.872 50.088 173.496 52.3484C171.289 66.4491 168.49 80.3883 165.746 94.3814C164.185 102.293 162.463 100.355 161.171 100.355C161.171 100.355 159.072 100.355 157.296 93.9508C154.282 83.1331 150.353 67.5793 149.815 65.5342C149.492 64.3501 148.039 58.1609 147.716 59.937C147.339 61.1748 146.532 63.8119 146.155 65.0498C144.002 72.2078 141.85 79.312 139.643 86.4161C138.513 90.0758 137.221 93.7356 135.607 97.18C134.53 99.4942 132.216 100.302 130.763 100.032C129.471 99.8172 126.619 99.6557 127.803 95.4578C131.947 80.9265 135.768 66.2876 140.666 52.0255C142.28 47.3432 146.909 47.5047 149.115 52.4022C153.259 61.6592 156.489 71.3467 160.041 80.8727C160.687 82.7026 161.063 84.7477 161.871 87.7616Z" fill="white"/>
<path d="M196.315 55.0919C195.4 60.5276 194.593 65.5328 193.678 71.3453C199.167 71.6144 204.388 71.8835 210.792 72.2603C211.869 72.7446 210.416 75.8124 208.586 76.5658C204.28 78.3419 197.015 78.1804 192.117 79.3644C191.417 83.2933 190.556 88.0294 189.48 93.8957C195.615 94.4339 201.374 94.9183 207.187 95.4026C207.94 95.4564 208.317 95.4026 207.94 96.8557C207.079 99.2238 204.872 99.762 203.15 100.031C198.952 100.731 194.647 101.054 190.395 100.946C182.86 100.838 179.416 97.5554 180.546 90.1283C182.376 77.9113 185.121 65.8558 187.812 53.8002C188.888 49.0103 192.279 46.9113 197.499 47.7724C201.697 48.4721 206.002 48.3106 210.254 48.795C211.492 48.9564 213.86 49.0103 213.86 50.7325C213.86 53.4773 211.707 53.4773 210.47 53.6926C206.002 54.4999 201.482 54.6613 196.315 55.0919Z" fill="white"/>
<path d="M224.193 79.2045C226.4 67.7948 228.338 57.0847 230.652 46.4823C231.082 44.6524 232.32 41.5847 234.742 41.5847C239.963 41.3156 238.294 45.8364 238.025 47.6125C236.141 58.484 233.773 69.3017 231.19 80.0656C230.759 81.8417 229.091 84.6403 227.154 84.6403C226.292 84.6403 223.44 83.7792 224.193 79.2045Z" fill="white"/>
<path d="M218.65 98.203C220.157 94.2742 223.494 93.3055 225.431 93.5207C227.799 93.7898 229.414 97.0728 229.414 98.3107C229.414 101.432 226.669 103.693 224.301 104.231C221.879 104.984 217.358 102.132 218.65 98.203Z" fill="white"/>
</svg>
