<svg width="310" height="310" viewBox="0 0 310 310" fill="none" xmlns="http://www.w3.org/2000/svg">
<path d="M288.257 113.721C288.634 131.697 287.503 149.511 282.66 167.11C279.108 180.135 271.896 187.562 258.818 190.522C234.545 195.958 210.165 200.102 185.3 200.855C178.681 201.07 172.061 201.555 165.441 202.255C159.306 202.954 154.139 205.484 150.102 210.543C143.698 218.616 136.701 226.15 130.458 234.331C120.878 246.871 110.007 257.958 96.875 266.784C94.9375 268.076 86.4878 275.18 84.3889 273.781C82.3437 272.758 83.3125 268.399 84.2812 266.407C89.1788 256.451 95.5833 247.14 99.5659 236.86C104.517 224.159 107.908 210.812 111.46 197.626C113.505 190.199 111.352 188.853 103.495 187.777C83.2586 184.978 63.0225 181.803 42.8941 178.09C29.7083 175.668 24.3264 165.496 23.25 153.386C20.559 124.324 20.3975 95.2614 27.6632 66.6295C28.4705 63.5618 29.1163 60.3864 29.5468 57.2649C31.2691 45.6399 34.875 42.8413 46.3923 40.9038C78.8993 35.3066 111.621 36.1677 144.344 36.3291C176.043 36.4906 207.797 36.9211 239.497 37.4055C246.977 37.5131 254.512 37.9975 261.939 38.9125C272.811 40.2579 280.453 46.6625 282.767 57.1034C285.512 69.3743 286.75 81.968 288.095 94.4541C288.795 100.805 288.257 107.263 288.257 113.721ZM107.854 246.978C107.424 248.324 108.069 248.593 108.608 247.84C113.182 242.296 117.972 236.807 122.385 231.102C128.521 223.136 134.226 214.848 140.576 206.991C145.474 200.909 151.609 197.303 160.059 197.841C166.41 198.218 172.922 197.572 179.219 196.55C206.828 192.136 234.384 187.4 261.993 182.879C269.689 181.588 274.318 176.906 275.448 169.64C276.686 161.89 276.901 153.925 277.17 146.013C277.87 125.885 278.839 105.81 278.731 85.6816C278.677 77.4472 276.955 69.0514 274.641 61.0861C270.443 46.6086 260.002 40.7423 245.148 42.626C235.406 43.8638 225.557 45.0479 215.816 44.9402C186.484 44.6711 157.153 43.5948 127.821 43.1104C107.639 42.7875 87.5104 42.7336 67.3819 42.626C41.3333 42.4645 30.7309 58.2875 32.0225 79.9229C33.1527 99.3517 32.3455 118.888 32.5607 138.371C32.6146 144.991 33.0989 151.61 33.5833 158.23C34.0139 163.827 36.9739 168.025 42.2482 169.909C50.0521 172.708 57.802 175.883 65.875 177.444C78.1996 179.758 90.7934 180.619 103.226 182.449C116.573 184.386 120.394 189.23 119.856 202.631C119.748 204.73 119.587 206.937 118.995 208.982C115.335 221.63 111.568 234.277 107.854 246.978Z" fill="white"/>
<path d="M95.3142 106.993C95.5833 129.705 85.6267 145.367 66.3593 152.848C58.5555 155.861 53.7655 152.632 54.8419 144.506C57.3714 126.315 60.0086 108.177 63.184 90.0941C65.3367 77.8232 73.302 74.8093 84.4965 81.2677C91.9235 85.5732 94.0763 92.8389 95.2603 100.589C95.5833 102.634 95.3142 104.841 95.3142 106.993ZM66.9513 141.815C68.9965 141.384 69.6423 141.384 70.1805 141.115C85.5728 134.011 94.5607 110.384 88.2638 93.7538C86.2725 88.4257 82.9895 84.7121 76.1006 84.4968C73.0867 103.549 70.0728 122.278 66.9513 141.815Z" fill="white"/>
<path d="M143.214 107.209C142.352 119.264 138.8 131.32 128.467 140.361C119.91 147.842 110.491 145.905 105.271 135.679C99.7812 124.861 102.149 113.99 105.701 103.28C106.832 99.8353 108.5 96.5524 110.33 93.4308C116.681 82.7208 119.21 82.8284 129.651 83.851C136.109 84.4968 141.76 92.0853 142.837 100.212C143.106 102.15 143.052 104.141 143.214 107.209ZM112.859 126.745C113.505 132.396 116.196 134.71 118.51 135.141C121.363 135.625 125.83 133.096 127.983 130.512C135.302 121.686 137.778 111.245 135.087 99.943C134.495 97.4135 132.826 94.7763 130.889 93.0003C126.476 88.91 122.547 89.3944 120.179 94.9378C112.752 112.16 112.483 123.247 112.859 126.745Z" fill="white"/>
<path d="M183.417 123.947C185.031 110.977 186.269 99.1367 188.045 87.3503C188.368 85.1437 188.422 81.2148 192.243 81.2148C197.464 81.2148 195.418 86.2739 195.042 88.5343C192.835 102.635 190.036 116.574 187.292 130.567C185.731 138.479 184.009 136.541 182.717 136.541C182.717 136.541 180.618 136.541 178.842 130.137C175.828 119.319 171.899 103.765 171.361 101.72C171.038 100.536 169.585 94.3468 169.262 96.1228C168.885 97.3607 168.078 99.9978 167.701 101.236C165.549 108.394 163.396 115.498 161.189 122.602C160.059 126.262 158.767 129.921 157.153 133.366C156.076 135.68 153.762 136.487 152.309 136.218C151.017 136.003 148.165 135.842 149.349 131.644C153.493 117.112 157.314 102.474 162.212 88.2114C163.826 83.5291 168.455 83.6905 170.661 88.5881C174.806 97.845 178.035 107.533 181.587 117.059C182.233 118.888 182.609 120.934 183.417 123.947Z" fill="white"/>
<path d="M217.861 91.2777C216.946 96.7134 216.139 101.719 215.224 107.531C220.714 107.8 225.934 108.069 232.339 108.446C233.415 108.93 231.962 111.998 230.132 112.752C225.826 114.528 218.561 114.366 213.663 115.55C212.964 119.479 212.102 124.215 211.026 130.082C217.162 130.62 222.92 131.104 228.733 131.588C229.486 131.642 229.863 131.588 229.486 133.042C228.625 135.41 226.418 135.948 224.696 136.217C220.498 136.917 216.193 137.239 211.941 137.132C204.406 137.024 200.962 133.741 202.092 126.314C203.922 114.097 206.667 102.042 209.358 89.986C210.434 85.1961 213.825 83.0971 219.045 83.9582C223.243 84.6579 227.549 84.4964 231.8 84.9808C233.038 85.1423 235.406 85.1961 235.406 86.9183C235.406 89.6631 233.254 89.6631 232.016 89.8784C227.549 90.6857 223.028 90.8471 217.861 91.2777Z" fill="white"/>
<path d="M245.74 115.391C247.946 103.981 249.884 93.2708 252.198 82.6684C252.629 80.8385 253.866 77.7708 256.288 77.7708C261.509 77.5017 259.84 82.0225 259.571 83.7986C257.688 94.6701 255.32 105.488 252.736 116.252C252.306 118.028 250.637 120.826 248.7 120.826C247.839 120.826 244.986 119.965 245.74 115.391Z" fill="white"/>
<path d="M240.196 134.389C241.703 130.46 245.04 129.492 246.977 129.707C249.345 129.976 250.96 133.259 250.96 134.497C250.96 137.618 248.215 139.879 245.847 140.417C243.425 141.17 238.904 138.318 240.196 134.389Z" fill="white"/>
</svg>
