<svg width="54" height="54" viewBox="0 0 54 54" fill="none" xmlns="http://www.w3.org/2000/svg">
<path d="M25.2793 6.99512C26.2952 6.2184 27.7059 6.21825 28.7217 6.99512L32.2988 9.73145C33.2214 10.437 34.3126 10.8885 35.4639 11.042L39.9287 11.6377C41.1963 11.8067 42.1932 12.8037 42.3623 14.0713L42.958 18.5361C43.1115 19.6874 43.563 20.7786 44.2686 21.7012L47.0049 25.2793C47.7816 26.2952 47.7818 27.7058 47.0049 28.7217L44.2686 32.2988C43.563 33.2214 43.1115 34.3126 42.958 35.4639L42.3623 39.9287C42.1933 41.1963 41.1963 42.1933 39.9287 42.3623L35.4639 42.958C34.3126 43.1115 33.2214 43.563 32.2988 44.2686L28.7217 47.0049C27.7058 47.7818 26.2952 47.7816 25.2793 47.0049L21.7012 44.2686C20.7786 43.563 19.6874 43.1115 18.5361 42.958L14.0713 42.3623C12.8037 42.1932 11.8067 41.1963 11.6377 39.9287L11.042 35.4639C10.8885 34.3126 10.437 33.2214 9.73145 32.2988L6.99512 28.7217C6.21825 27.7059 6.2184 26.2952 6.99512 25.2793L9.73145 21.7012C10.437 20.7786 10.8885 19.6874 11.042 18.5361L11.6377 14.0713C11.8068 12.8038 12.8038 11.8068 14.0713 11.6377L18.5361 11.042C19.6874 10.8885 20.7786 10.437 21.7012 9.73145L25.2793 6.99512Z" stroke="#EB216F" stroke-width="3.82501"/>
<path d="M31.7458 22.2544L22.2543 31.7459" stroke="#EB216F" stroke-width="3.82501" stroke-linecap="round"/>
<circle cx="22.2543" cy="22.2542" r="2.37288" fill="#EB216F"/>
<circle cx="31.7458" cy="31.7459" r="2.37288" fill="#EB216F"/>
</svg>
