<svg width="602" height="553" viewBox="0 0 602 553" fill="none" xmlns="http://www.w3.org/2000/svg">
<path d="M68.0277 64.3747C68.0277 63.1559 68.1694 61.9606 68.1694 60.7419C68.193 58.3981 69.5861 57.1794 71.6638 56.6403C72.9152 56.3122 74.2611 56.1481 75.5597 56.1247C104.035 55.6794 132.486 55.2575 160.961 54.8356C168.375 54.7184 175.812 54.6716 183.226 54.6247C187.618 54.6013 188.019 54.9997 187.972 59.3122C187.642 81.5075 187.122 103.703 187.122 125.898C187.122 131.523 185.304 135.906 181.857 139.984C176.19 146.711 170.524 153.437 164.81 160.093C160.489 165.133 156.026 170.054 151.682 175.093C150.053 176.992 148.187 177.859 145.59 177.859C123.136 177.953 100.682 178.164 78.2277 178.351C77.0944 178.351 75.9611 178.328 74.8513 178.258C70.6722 177.976 68.9249 176.265 68.9013 172.07C68.8305 153.812 68.0041 81.9997 68.0277 64.3747ZM183.297 59.8513C146.322 60.2966 109.536 60.7419 72.7972 61.1872C73.1041 98.7575 73.4347 136.14 73.7416 173.429C97.4708 173.148 121.129 172.843 144.599 172.562C144.599 170.289 144.528 168.179 144.599 166.047C144.906 157.187 145.142 148.328 145.685 139.492C145.85 136.984 146.015 133.914 149.746 133.492C153.476 133.093 157.207 132.414 160.937 132.297C167.903 132.109 174.892 132.25 181.881 132.25C182.353 108.156 182.825 84.0856 183.297 59.8513ZM150.667 138.015C150.667 148.281 150.667 158.523 150.667 168.812C160.631 157.632 170.594 146.476 180.511 135.367C170.665 136.234 160.89 137.101 150.667 138.015Z" fill="white"/>
<path d="M68.0277 291.488C68.0277 290.261 68.1694 289.056 68.1694 287.829C68.193 285.468 69.5861 284.24 71.6638 283.697C72.9152 283.366 74.2611 283.201 75.5597 283.177C104.035 282.729 132.486 282.304 160.961 281.879C168.375 281.761 175.812 281.713 183.226 281.666C187.618 281.643 188.019 282.044 187.972 286.388C187.642 308.748 187.122 331.108 187.122 353.468C187.122 359.134 185.304 363.55 181.857 367.658C176.19 374.434 170.524 381.211 164.81 387.916C160.489 392.993 156.026 397.951 151.682 403.027C150.053 404.94 148.187 405.813 145.59 405.813C123.136 405.908 100.682 406.12 78.2277 406.309C77.0944 406.309 75.9611 406.286 74.8513 406.215C70.6722 405.931 68.9249 404.208 68.9013 399.981C68.8305 381.588 68.0041 309.244 68.0277 291.488ZM183.297 286.931C146.322 287.38 109.536 287.829 72.7972 288.277C73.1041 326.126 73.4347 363.786 73.7416 401.351C97.4708 401.068 121.129 400.761 144.599 400.477C144.599 398.187 144.528 396.062 144.599 393.913C144.906 384.988 145.142 376.063 145.685 367.162C145.85 364.636 146.015 361.543 149.746 361.118C153.476 360.716 157.207 360.031 160.937 359.913C167.903 359.725 174.892 359.866 181.881 359.866C182.353 335.594 182.825 311.345 183.297 286.931ZM150.667 365.675C150.667 376.016 150.667 386.334 150.667 396.7C160.631 385.437 170.594 374.198 180.511 363.006C170.665 363.88 160.89 364.754 150.667 365.675Z" fill="white"/>
<path d="M243.028 154.489C243.028 153.261 243.169 152.057 243.169 150.829C243.193 148.468 244.586 147.24 246.664 146.697C247.915 146.366 249.261 146.201 250.56 146.177C279.035 145.729 307.486 145.304 335.961 144.879C343.375 144.761 350.813 144.714 358.226 144.666C362.618 144.643 363.019 145.044 362.972 149.389C362.642 171.748 362.122 194.108 362.122 216.468C362.122 222.134 360.304 226.55 356.857 230.658C351.19 237.434 345.524 244.211 339.81 250.916C335.489 255.993 331.026 260.951 326.682 266.027C325.053 267.94 323.188 268.814 320.59 268.814C298.136 268.908 275.682 269.12 253.228 269.309C252.094 269.309 250.961 269.286 249.851 269.215C245.672 268.932 243.925 267.208 243.901 262.982C243.831 244.589 243.004 172.244 243.028 154.489ZM358.297 149.932C321.322 150.38 284.536 150.829 247.797 151.277C248.104 189.126 248.435 226.786 248.742 264.351C272.471 264.068 296.129 263.761 319.599 263.477C319.599 261.187 319.528 259.062 319.599 256.914C319.906 247.989 320.142 239.064 320.685 230.162C320.85 227.636 321.015 224.543 324.746 224.118C328.476 223.716 332.207 223.032 335.938 222.914C342.903 222.725 349.892 222.866 356.881 222.866C357.353 198.594 357.825 174.345 358.297 149.932ZM325.667 228.675C325.667 239.016 325.667 249.334 325.667 259.7C335.631 248.437 345.594 237.198 355.511 226.007C345.665 226.88 335.89 227.754 325.667 228.675Z" fill="#EB216F"/>
<path d="M243.028 393.375C243.028 392.156 243.169 390.961 243.169 389.742C243.193 387.398 244.586 386.179 246.664 385.64C247.915 385.312 249.261 385.148 250.56 385.125C279.035 384.679 307.486 384.258 335.961 383.836C343.375 383.718 350.813 383.672 358.226 383.625C362.618 383.601 363.019 384 362.972 388.312C362.642 410.508 362.122 432.703 362.122 454.898C362.122 460.523 360.304 464.906 356.857 468.984C351.19 475.711 345.524 482.437 339.81 489.093C335.489 494.133 331.026 499.054 326.682 504.093C325.053 505.992 323.188 506.859 320.59 506.859C298.136 506.953 275.682 507.164 253.228 507.351C252.094 507.351 250.961 507.328 249.851 507.258C245.672 506.976 243.925 505.265 243.901 501.07C243.831 482.812 243.004 411 243.028 393.375ZM358.297 388.851C321.322 389.297 284.536 389.742 247.797 390.187C248.104 427.758 248.435 465.14 248.742 502.429C272.471 502.148 296.129 501.843 319.599 501.562C319.599 499.289 319.528 497.179 319.599 495.047C319.906 486.187 320.142 477.328 320.685 468.492C320.85 465.984 321.015 462.914 324.746 462.492C328.476 462.093 332.207 461.414 335.938 461.297C342.903 461.109 349.892 461.25 356.881 461.25C357.353 437.156 357.825 413.086 358.297 388.851ZM325.667 467.015C325.667 477.281 325.667 487.523 325.667 497.812C335.631 486.632 345.594 475.476 355.511 464.367C345.665 465.234 335.89 466.101 325.667 467.015Z" fill="white"/>
<path d="M425.969 64.3747C425.969 63.1559 426.109 61.9606 426.109 60.7419C426.133 58.3981 427.516 57.1794 429.578 56.6403C430.82 56.3122 432.156 56.1481 433.445 56.1247C461.711 55.6794 489.953 55.2575 518.219 54.8356C525.578 54.7184 532.961 54.6716 540.32 54.6247C544.68 54.6013 545.078 54.9997 545.031 59.3122C544.703 81.5075 544.188 103.703 544.188 125.898C544.188 131.523 542.383 135.906 538.961 139.984C533.336 146.711 527.711 153.437 522.039 160.093C517.75 165.133 513.32 170.054 509.008 175.093C507.391 176.992 505.539 177.859 502.961 177.859C480.672 177.953 458.383 178.164 436.094 178.351C434.969 178.351 433.844 178.328 432.742 178.258C428.594 177.976 426.859 176.265 426.836 172.07C426.766 153.812 425.945 81.9997 425.969 64.3747ZM540.391 59.8513C503.688 60.2966 467.172 60.7419 430.703 61.1872C431.008 98.7575 431.336 136.14 431.641 173.429C455.195 173.148 478.68 172.843 501.977 172.562C501.977 170.289 501.906 168.179 501.977 166.047C502.281 157.187 502.516 148.328 503.055 139.492C503.219 136.984 503.383 133.914 507.086 133.492C510.789 133.093 514.492 132.414 518.195 132.297C525.109 132.109 532.047 132.25 538.984 132.25C539.453 108.156 539.922 84.0856 540.391 59.8513ZM508 138.015C508 148.281 508 158.523 508 168.812C517.891 157.632 527.781 146.476 537.625 135.367C527.852 136.234 518.148 137.101 508 138.015Z" fill="white"/>
<path d="M425.969 291.488C425.969 290.261 426.109 289.056 426.109 287.829C426.133 285.468 427.516 284.24 429.578 283.697C430.82 283.366 432.156 283.201 433.445 283.177C461.711 282.729 489.953 282.304 518.219 281.879C525.578 281.761 532.961 281.713 540.32 281.666C544.68 281.643 545.078 282.044 545.031 286.388C544.703 308.748 544.188 331.108 544.188 353.468C544.188 359.134 542.383 363.55 538.961 367.658C533.336 374.434 527.711 381.211 522.039 387.916C517.75 392.993 513.32 397.951 509.008 403.027C507.391 404.94 505.539 405.813 502.961 405.813C480.672 405.908 458.383 406.12 436.094 406.309C434.969 406.309 433.844 406.286 432.742 406.215C428.594 405.931 426.859 404.208 426.836 399.981C426.766 381.588 425.945 309.244 425.969 291.488ZM540.391 286.931C503.688 287.38 467.172 287.829 430.703 288.277C431.008 326.126 431.336 363.786 431.641 401.351C455.195 401.068 478.68 400.761 501.977 400.477C501.977 398.187 501.906 396.062 501.977 393.913C502.281 384.988 502.516 376.063 503.055 367.162C503.219 364.636 503.383 361.543 507.086 361.118C510.789 360.716 514.492 360.031 518.195 359.913C525.109 359.725 532.047 359.866 538.984 359.866C539.453 335.594 539.922 311.345 540.391 286.931ZM508 365.675C508 376.016 508 386.334 508 396.7C517.891 385.437 527.781 374.198 537.625 363.006C527.852 363.88 518.148 364.754 508 365.675Z" fill="white"/>
<path d="M369.333 137.923C369.502 137.248 369.6 136.7 369.783 136.165C371.611 130.765 374.55 125.956 377.897 121.386C378.291 120.851 378.783 120.345 379.331 120.007C379.627 119.825 380.217 119.853 380.555 120.036C380.808 120.176 380.991 120.725 380.934 121.034C380.836 121.625 380.625 122.229 380.33 122.764C378.389 126.293 376.434 129.809 374.452 133.311C373.706 134.618 372.919 135.912 372.145 137.206C371.892 137.642 371.611 138.064 371.316 138.457C370.992 138.907 370.5 139.175 370.008 138.879C369.684 138.682 369.333 138.542 369.333 137.923Z" fill="white"/>
<path d="M389.245 158.863C388.57 158.75 387.783 158.666 387.023 158.497C384.028 157.822 381.033 157.147 378.052 156.444C377.405 156.289 376.772 156.022 376.195 155.713C375.422 155.305 375.155 154.728 375.281 154.095C375.408 153.463 375.914 153.069 376.8 153.055C377.405 153.041 378.052 153.055 378.628 153.195C382.411 154.152 386.194 155.136 389.963 156.134C390.384 156.247 390.82 156.444 391.144 156.725C391.959 157.414 391.706 158.497 390.666 158.764C390.258 158.863 389.794 158.82 389.245 158.863Z" fill="white"/>
<path d="M349.73 121.161C349.786 120.5 349.927 119.839 350.095 119.192C350.25 118.615 350.644 118.208 351.277 118.151C351.811 118.109 352.388 118.644 352.472 119.347C352.584 120.289 352.683 121.245 352.641 122.187C352.514 125.028 352.331 127.883 352.134 130.723C352.064 131.665 351.938 132.608 351.783 133.55C351.727 133.873 351.614 134.211 351.431 134.464C350.939 135.181 350.039 135.125 349.688 134.351C349.491 133.915 349.406 133.381 349.406 132.903C349.336 131.328 349.547 123.495 349.73 121.161Z" fill="white"/>
<path d="M489.549 342.127C488.017 343.038 486.802 343.719 485.623 344.448C481.321 347.158 477.019 349.844 472.778 352.627C471.879 353.21 471.101 354.097 470.517 354.996C468.67 357.889 466.969 360.878 465.146 363.783C464.842 364.257 464.465 364.864 463.675 364.864C463.189 364.864 462.971 363.953 463.347 363.029C463.505 362.653 463.639 362.215 463.797 361.814C464.101 361.049 465.948 358.691 464.903 358.594C464.247 358.533 464.04 357.403 464.514 356.443C464.866 355.726 466.009 354.984 466.653 354.51C468.986 352.748 470.469 350.318 472.097 347.972C475.792 342.698 479.571 337.496 483.314 332.259C483.788 331.602 484.262 330.946 484.688 330.363C482.755 329.743 480.823 329.391 479.182 328.491C478.064 327.884 476.946 326.802 476.533 325.429C476.132 324.055 476.509 322.864 477.53 321.904C478.49 321.005 479.583 320.969 480.859 321.285C482.184 321.613 483.484 322.95 484.42 324.153C485.465 325.502 485.927 326.267 486.754 327.483C488.127 325.672 489.439 323.897 490.788 322.147C492.295 320.191 493.814 318.246 495.382 316.351C495.99 315.609 496.84 314.661 497.788 315.378C498.323 315.779 498.566 317.007 498.432 317.785C497.946 320.641 497.241 323.448 496.622 326.279C496.524 326.741 496.439 327.203 496.293 327.932C498.432 327.932 500.401 327.896 502.37 327.944C503.67 327.981 504.983 328.078 506.271 328.236C507.413 328.382 508.531 328.759 508.787 330.047C509.042 331.347 508.142 332.149 507.146 332.696C504.266 334.276 501.349 335.783 498.432 337.302C493.644 339.781 493.644 339.769 492.939 345.274C492.708 347.097 492.49 348.92 492.234 350.743C492.125 351.521 491.967 352.408 490.922 352.311C489.889 352.213 489.901 351.338 489.865 350.536C489.792 347.851 489.67 345.153 489.549 342.127ZM475.646 347.267C475.95 347.292 484.226 342.272 488.26 339.72C488.516 339.562 488.82 339.088 488.759 338.833C488.2 336.524 487.556 334.227 486.839 331.566C482.95 337.035 479.328 342.102 475.646 347.267ZM504.764 330.545C501.908 330.545 499.04 330.533 496.184 330.569C495.965 330.569 495.747 330.484 495.564 331.177C495.163 332.757 494.896 334.361 494.519 336.208C498.129 334.385 504.788 330.691 504.764 330.545ZM488.224 330.484C489.05 333.134 490.958 338.286 491.104 338.311C491.481 337.557 491.882 336.5 492.234 335.321C492.684 333.826 493.085 332.101 493.34 330.496C491.445 330.484 489.877 330.484 488.224 330.484ZM489.524 327.774C491.043 327.774 492.137 327.811 493.231 327.75C493.486 327.738 493.899 327.483 493.96 327.264C494.75 324.347 495.479 321.418 496.221 318.489C496.184 318.477 496.196 318.477 496.16 318.465L489.524 327.774ZM484.846 327.507C483.898 326.45 483.278 325.271 481.637 323.812C480.884 323.132 479.948 322.512 479 323.581C478.38 324.286 478.83 325.502 480.13 326.097C481.418 326.693 484.736 327.665 484.846 327.507Z" fill="white"/>
<path d="M125.65 117.657C124.075 118.581 122.825 119.272 121.613 120.011C117.188 122.76 112.763 125.484 108.4 128.307C107.475 128.899 106.675 129.798 106.075 130.711C104.175 133.644 102.425 136.677 100.55 139.623C100.238 140.103 99.85 140.72 99.0375 140.72C98.5375 140.72 98.3125 139.795 98.7 138.858C98.8625 138.476 99 138.032 99.1625 137.626C99.475 136.849 101.375 134.458 100.3 134.359C99.625 134.298 99.4125 133.151 99.9 132.177C100.263 131.45 101.438 130.698 102.1 130.218C104.5 128.43 106.025 125.965 107.7 123.586C111.5 118.236 115.388 112.961 119.238 107.648C119.725 106.982 120.213 106.317 120.65 105.725C118.663 105.096 116.675 104.739 114.988 103.827C113.838 103.21 112.688 102.113 112.263 100.72C111.85 99.3276 112.238 98.1196 113.288 97.1458C114.275 96.2337 115.4 96.1967 116.713 96.5172C118.075 96.85 119.413 98.2059 120.375 99.4262C121.45 100.794 121.925 101.571 122.775 102.804C124.188 100.967 125.538 99.1673 126.925 97.3923C128.475 95.4078 130.038 93.4356 131.65 91.5126C132.275 90.7607 133.15 89.7993 134.125 90.5265C134.675 90.9333 134.925 92.1783 134.788 92.9672C134.288 95.8639 133.563 98.7113 132.925 101.583C132.825 102.052 132.738 102.52 132.588 103.26C134.788 103.26 136.813 103.223 138.838 103.272C140.175 103.309 141.525 103.408 142.85 103.568C144.025 103.716 145.175 104.098 145.438 105.404C145.7 106.723 144.775 107.537 143.75 108.092C140.788 109.694 137.788 111.223 134.788 112.763C129.863 115.278 129.863 115.266 129.138 120.849C128.9 122.698 128.675 124.547 128.413 126.396C128.3 127.185 128.138 128.085 127.063 127.986C126 127.888 126.013 127 125.975 126.187C125.9 123.463 125.775 120.726 125.65 117.657ZM111.35 122.871C111.663 122.896 120.175 117.805 124.325 115.216C124.588 115.056 124.9 114.575 124.838 114.316C124.263 111.974 123.6 109.645 122.863 106.945C118.863 112.492 115.138 117.632 111.35 122.871ZM141.3 105.91C138.363 105.91 135.413 105.898 132.475 105.935C132.25 105.935 132.025 105.848 131.838 106.551C131.425 108.153 131.15 109.78 130.763 111.654C134.475 109.805 141.325 106.058 141.3 105.91ZM124.288 105.848C125.138 108.535 127.1 113.762 127.25 113.786C127.638 113.022 128.05 111.95 128.413 110.754C128.875 109.238 129.288 107.488 129.55 105.861C127.6 105.848 125.988 105.848 124.288 105.848ZM125.625 103.099C127.188 103.099 128.313 103.136 129.438 103.075C129.7 103.062 130.125 102.804 130.188 102.582C131 99.6234 131.75 96.6528 132.513 93.6821C132.475 93.6698 132.488 93.6698 132.45 93.6574L125.625 103.099ZM120.813 102.828C119.838 101.756 119.2 100.56 117.513 99.081C116.738 98.3908 115.775 97.7621 114.8 98.8468C114.163 99.5618 114.625 100.794 115.963 101.398C117.288 102.002 120.7 102.989 120.813 102.828Z" fill="white"/>
</svg>
